<?xml version="1.0" encoding="UTF-8" standalone="no"?>
<!-- Created with Inkscape (http://www.inkscape.org/) -->

<svg
   xmlns:dc="http://purl.org/dc/elements/1.1/"
   xmlns:cc="http://creativecommons.org/ns#"
   xmlns:rdf="http://www.w3.org/1999/02/22-rdf-syntax-ns#"
   xmlns:svg="http://www.w3.org/2000/svg"
   xmlns="http://www.w3.org/2000/svg"
   xmlns:sodipodi="http://sodipodi.sourceforge.net/DTD/sodipodi-0.dtd"
   xmlns:inkscape="http://www.inkscape.org/namespaces/inkscape"
   width="530.40356"
   height="100.22422"
   id="svg2"
   sodipodi:version="0.32"
   inkscape:version="0.48.4 r9939"
   version="1.0"
   sodipodi:docname="GameStop.svg"
   inkscape:output_extension="org.inkscape.output.svg.inkscape">
  <defs
     id="defs4">
    <inkscape:perspective
       sodipodi:type="inkscape:persp3d"
       inkscape:vp_x="0 : 526.18109 : 1"
       inkscape:vp_y="0 : 1000 : 0"
       inkscape:vp_z="744.09448 : 526.18109 : 1"
       inkscape:persp3d-origin="372.04724 : 350.78739 : 1"
       id="perspective10" />
    <inkscape:perspective
       id="perspective2390"
       inkscape:persp3d-origin="372.04724 : 350.78739 : 1"
       inkscape:vp_z="744.09448 : 526.18109 : 1"
       inkscape:vp_y="0 : 1000 : 0"
       inkscape:vp_x="0 : 526.18109 : 1"
       sodipodi:type="inkscape:persp3d" />
  </defs>
  <sodipodi:namedview
     id="base"
     pagecolor="#ffffff"
     bordercolor="#666666"
     borderopacity="1.0"
     gridtolerance="10000"
     guidetolerance="10"
     objecttolerance="10"
     inkscape:pageopacity="0.0"
     inkscape:pageshadow="2"
     inkscape:zoom="0.48272354"
     inkscape:cx="352.549"
     inkscape:cy="512.9897"
     inkscape:document-units="px"
     inkscape:current-layer="layer1"
     showgrid="false"
     inkscape:window-width="1024"
     inkscape:window-height="721"
     inkscape:window-x="-4"
     inkscape:window-y="-4"
     fit-margin-top="0"
     fit-margin-left="0"
     fit-margin-right="0"
     fit-margin-bottom="0"
     inkscape:window-maximized="0" />
  <metadata
     id="metadata7">
    <rdf:RDF>
      <cc:Work
         rdf:about="">
        <dc:format>image/svg+xml</dc:format>
        <dc:type
           rdf:resource="http://purl.org/dc/dcmitype/StillImage" />
      </cc:Work>
    </rdf:RDF>
  </metadata>
  <g
     inkscape:label="Layer 1"
     inkscape:groupmode="layer"
     id="layer1"
     transform="translate(-81.145616,-438.12442)">
    <path
       style="font-size:1471.46984863px;font-style:normal;font-weight:normal;text-align:start;line-height:125%;text-anchor:start;fill:#000000;fill-opacity:1;stroke:none;font-family:Bitstream Vera Sans"
       d="m 140.38545,475.10049 -25.50099,0 0,-7.91376 c -3e-5,-4.98865 -0.24232,-8.11109 -0.72686,-9.36731 -0.48462,-1.25607 -1.6355,-1.88415 -3.45264,-1.88423 -1.57491,8e-5 -2.64503,0.53843 -3.21033,1.61506 -0.56538,1.07678 -0.84805,3.84031 -0.84802,8.2906 l 0,41.82988 c -3e-5,3.91203 0.28264,6.48715 0.84802,7.72534 0.5653,1.23822 1.69599,1.85733 3.39205,1.85731 1.85752,2e-5 3.11944,-0.69985 3.78578,-2.09957 0.66626,-1.39969 0.99941,-4.12734 0.99945,-8.18293 l 0,-10.33635 -5.14866,0 0,-13.24343 29.8622,0 0,46.78271 -16.05169,0 -2.36233,-6.24488 c -1.73644,2.69176 -3.92715,4.71058 -6.57211,6.05645 -2.64502,1.34588 -5.7645,2.01882 -9.35843,2.01882 -4.28048,0 -8.288352,-0.92417 -12.023631,-2.77251 -3.735314,-1.84834 -6.572119,-4.13633 -8.510428,-6.86397 -1.938324,-2.72764 -3.149771,-5.58987 -3.634346,-8.58671 -0.484583,-2.9968 -0.726873,-7.49202 -0.726869,-13.48568 l 0,-25.89469 c -4e-6,-8.32644 0.504766,-14.37391 1.514312,-18.14243 1.009533,-3.76839 3.906911,-7.2228 8.692144,-10.36326 4.785202,-3.1403 10.973678,-4.71049 18.565448,-4.71057 7.47056,8e-5 13.66914,1.3639 18.59574,4.09147 4.9265,2.72772 8.13684,5.9668 9.63102,9.71723 1.49406,3.75058 2.24111,9.19689 2.24117,16.33895 l 0,3.76846 z m 28.95252,11.30537 -22.95695,0 0,-4.79132 c 0,-5.52702 0.71677,-9.78896 2.15032,-12.78584 1.43355,-2.99675 4.31073,-5.64365 8.63158,-7.94067 4.32082,-2.2969 9.93385,-3.44538 16.83913,-3.44546 8.27819,8e-5 15.57711,1.30109 19.77685,3.90305 4.19964,2.6021 6.72348,5.79631 7.57155,9.58265 0.84796,3.78646 1.27197,11.58357 1.27202,23.39136 l 0,35.85418 -24.86493,0 0,-6.35255 c -1.49415,2.5482 -3.42237,4.45935 -5.78467,5.73344 -2.36234,1.2741 -5.17896,1.91115 -8.44985,1.91115 -4.28047,0 -8.20757,-1.06773 -11.78134,-3.2032 -3.57377,-2.13544 -5.36066,-6.81012 -5.36066,-14.02404 l 0,-5.86802 c 0,-5.3476 0.94897,-8.99043 2.84691,-10.92853 1.89793,-1.93803 6.60238,-4.19911 14.11337,-6.78323 8.03592,-2.79938 12.33656,-4.68361 12.90193,-5.65268 0.56532,-0.96898 0.84798,-2.94294 0.84802,-5.92186 -4e-5,-3.73252 -0.313,-6.16406 -0.93888,-7.29466 -0.62594,-1.13047 -1.66577,-1.69574 -3.11947,-1.6958 -1.65568,6e-5 -2.68541,0.4756 -3.08919,1.42663 -0.40385,0.95114 -0.60576,3.41858 -0.60574,7.40233 l 0,7.48307 z m 7.75328,9.798 c -3.91704,2.54822 -6.18851,4.68367 -6.8144,6.40637 -0.62594,1.72275 -0.9389,4.19916 -0.93888,7.42924 -2e-5,3.6967 0.27256,6.08339 0.81773,7.16008 0.54513,1.07671 1.62533,1.61506 3.24063,1.61505 1.53447,10e-6 2.53392,-0.42169 2.99833,-1.26513 0.46436,-0.8434 0.69655,-3.05961 0.69659,-6.64864 l 0,-14.69697 z m 57.05924,-37.46924 -0.42401,6.78322 c 1.8979,-2.69169 4.15927,-4.7105 6.78411,-6.05645 2.62476,-1.3458 5.613,-2.01874 8.96472,-2.01882 6.54177,8e-5 11.69042,2.69183 15.44597,8.07527 2.05941,-2.69169 4.38135,-4.7105 6.96583,-6.05645 2.58436,-1.3458 5.45145,-2.01874 8.60129,-2.01882 4.15922,8e-5 7.60175,0.89733 10.3276,2.69176 2.72566,1.79458 4.47217,3.99283 5.23951,6.59481 0.76717,2.60209 1.15079,6.82814 1.15088,12.67816 l 0,50.76651 -23.7444,0 0,-46.56738 c -6e-5,-6.10125 -0.23226,-9.87868 -0.69658,-11.33228 -0.46446,-1.45349 -1.54466,-2.18026 -3.24063,-2.18032 -1.73647,6e-5 -2.85705,0.71786 -3.36176,2.15341 -0.50484,1.43565 -0.75722,5.22205 -0.75716,11.35919 l 0,46.56738 -23.74439,0 0,-45.383 c -4e-5,-6.99851 -0.19185,-11.19765 -0.57544,-12.59741 -0.38366,-1.39965 -1.44368,-2.09951 -3.18005,-2.09957 -1.09034,6e-5 -2.01912,0.36793 -2.78634,1.10362 -0.76728,0.7358 -1.19129,1.63305 -1.27202,2.69175 -0.0808,1.05881 -0.12117,3.31092 -0.12114,6.7563 l 0,49.52831 -24.53937,0 0,-71.43919 24.96338,0 z m 126.95982,36.98472 -31.67938,0 0,15.45067 c -3e-5,3.23012 0.26245,5.31175 0.78744,6.24487 0.52492,0.93316 1.53447,1.39973 3.02861,1.39972 1.85753,10e-6 3.09926,-0.61909 3.72521,-1.85732 0.62588,-1.23818 0.93883,-3.63385 0.93887,-7.18698 l 0,-9.42115 23.19925,0 0,5.27585 c -7e-5,4.41449 -0.31302,7.80611 -0.93888,10.17483 -0.62597,2.36876 -2.0898,4.89901 -4.3915,7.59075 -2.30181,2.69176 -5.21937,4.71058 -8.75271,6.05645 -3.53344,1.34588 -7.96532,2.01882 -13.29565,2.01882 -5.16888,0 -9.732,-0.66397 -13.68938,-1.99191 -3.95741,-1.32792 -7.0365,-3.14934 -9.23729,-5.46426 -2.2008,-2.31489 -3.72521,-4.86309 -4.57322,-7.64458 -0.84802,-2.78146 -1.27203,-6.82806 -1.27202,-12.13982 l 0,-20.83418 c -10e-6,-6.24482 0.94896,-11.17073 2.8469,-14.77773 1.89793,-3.6069 5.00732,-6.37043 9.32815,-8.29062 4.32082,-1.92004 9.28776,-2.8801 14.90083,-2.88018 6.86484,8e-5 12.52835,1.15753 16.99056,3.47237 4.46213,2.31498 7.59169,5.38358 9.38873,9.2058 1.79693,3.82235 2.69541,9.19688 2.69548,16.12362 l 0,9.47498 z m -24.53184,-11.62838 0,-5.22201 c -4e-5,-3.69662 -0.22214,-6.08331 -0.6663,-7.16007 -0.44423,-1.07664 -1.35282,-1.61499 -2.72575,-1.61505 -1.69606,6e-5 -2.74598,0.45766 -3.14977,1.37279 -0.40385,0.91525 -0.60575,3.3827 -0.60572,7.40233 l 0,5.22201 7.14754,0 z"
       id="text2396"
       sodipodi:nodetypes="cccsssccsssccccccccsssssccssssscccccsssssccccsssccscssssscccsssssccccsscssssccccsssccccssssccccccccsssccccsssssssccsssssccccsssccc"
       inkscape:connector-curvature="0" />
    <path
       style="font-size:1471.46984863px;font-style:normal;font-weight:normal;text-align:start;line-height:125%;text-anchor:start;fill:#fd0000;fill-opacity:1;stroke:none;font-family:Bitstream Vera Sans"
       d="m 423.9239,467.39397 -23.68382,0 0,-6.46021 c -3e-5,-3.0147 -0.3029,-4.93482 -0.90858,-5.76036 -0.60577,-0.82539 -1.61531,-1.23813 -3.02863,-1.23821 -1.53453,8e-5 -2.6955,0.55638 -3.48291,1.66889 -0.78747,1.11267 -1.18119,2.7995 -1.18117,5.0605 -2e-5,2.90716 0.44418,5.09645 1.3326,6.56789 0.84798,1.47155 3.25069,3.24811 7.20811,5.32967 11.3472,5.99369 18.49474,10.91063 21.44265,14.75082 2.9478,3.84027 4.42173,10.0313 4.42179,18.57311 -6e-5,6.209 -0.81779,10.78498 -2.45318,13.72796 -1.63552,2.94298 -4.79537,5.41042 -9.47959,7.40232 -4.68431,1.9919 -10.13583,2.98785 -16.35456,2.98785 -6.82451,0 -12.64956,-1.14848 -17.47515,-3.44545 -4.82561,-2.29696 -7.98547,-5.222 -9.47958,-8.77512 -1.49413,-3.55311 -2.24119,-8.59566 -2.24118,-15.12767 l 0,-5.70651 23.68382,0 0,10.60551 c -3e-5,3.26602 0.33312,5.36558 0.99944,6.29871 0.66627,0.93315 1.84744,1.39973 3.5435,1.39971 1.69598,2e-5 2.95791,-0.59217 3.78577,-1.77656 0.82778,-1.18435 1.2417,-2.94297 1.24174,-5.27584 -4e-5,-5.13226 -0.78748,-8.48798 -2.36233,-10.06717 -1.6153,-1.57913 -5.59288,-4.21705 -11.93277,-7.91375 -6.33993,-3.73253 -11.33458,-6.44227 -13.39404,-8.1291 -2.05946,-1.68683 -3.76558,-4.01964 -5.11837,-6.99857 -1.35279,-2.97882 -2.02918,-6.78317 -2.02917,-11.41304 -1e-5,-6.67549 0.95905,-12.61648 2.87718,-15.70311 1.91813,-3.08646 5.01741,-5.50007 9.29787,-7.24082 4.28044,-1.74058 10.24425,-2.61092 16.30152,-2.611 6.62255,8e-5 12.26588,0.95117 16.93,2.85325 4.66402,1.90227 7.75321,4.29792 9.26757,7.18699 1.51426,2.88922 2.27141,8.85715 2.27147,15.78386 l 0,3.44545 z m 36.31313,-20.18816 0,8.60162 6.86738,0 0,11.30537 -6.86738,0 0,40.87284 c -3e-5,4.70161 0.27254,7.32158 0.81772,7.85993 0.54513,0.53835 1.75663,0.80753 5.75444,0.80753 l 0,11.52071 -9.87331,0 c -5.57268,0 -9.55026,-0.20637 -11.93276,-0.61911 -2.38254,-0.41274 -4.48237,-1.36382 -6.29953,-2.85326 -1.81718,-1.48943 -2.94788,-3.19421 -3.39206,-5.11434 -0.44421,-1.9201 -0.6663,-6.43328 -0.6663,-13.53952 l 0,-38.93478 -5.26981,0 0,-11.30537 5.26981,0 0,-8.60162 25.5918,0 z m 68.15151,34.61597 0,17.49641 c -6e-5,6.42434 -0.3635,11.13491 -1.09031,14.13171 -0.72692,2.99683 -2.28161,5.79626 -4.66408,8.39828 -2.38257,2.60203 -5.44147,4.52215 -9.17672,5.76035 -3.73534,1.23821 -8.02588,1.85732 -12.87164,1.85732 -5.41116,0 -9.99448,-0.52938 -13.74995,-1.58814 -3.7555,-1.05875 -6.67307,-2.65586 -8.75271,-4.79132 -2.07966,-2.13546 -3.56369,-4.71954 -4.45207,-7.75226 -0.8884,-3.03269 -1.3326,-7.58176 -1.3326,-13.6472 l 0,-18.30393 c 0,-6.63961 0.80763,-11.82572 2.42289,-15.55834 1.61527,-3.73251 4.52273,-6.72933 8.72244,-8.99047 4.19967,-2.261 9.57042,-3.39154 16.11227,-3.39162 5.49185,8e-5 10.20641,0.72686 14.14365,2.18033 3.93717,1.45362 6.97588,3.34681 9.11616,5.6796 2.14017,2.33292 3.604,4.73755 4.3915,7.21391 0.78738,2.47647 1.18111,6.24492 1.18117,11.30537 l 0,0 z m -24.47127,-5.38351 c -4e-5,-3.66073 -0.22213,-5.96667 -0.6663,-6.91781 -0.44423,-0.95103 -1.3932,-1.42657 -2.8469,-1.42663 -1.45376,6e-5 -2.42293,0.4756 -2.90748,1.42663 -0.48461,0.95114 -0.7269,3.25708 -0.72687,6.91781 l 0,32.24723 c -3e-5,3.37368 0.24226,5.57195 0.72687,6.5948 0.48455,1.02287 1.43352,1.53431 2.84691,1.5343 1.45371,10e-6 2.41277,-0.46656 2.87719,-1.39972 0.46436,-0.93312 0.69654,-2.94297 0.69658,-6.02953 l 0,-32.94708 z m 56.15833,-19.70365 -0.42401,6.2987 c 2.18057,-2.54812 4.58327,-4.45029 7.20811,-5.70652 2.62477,-1.25608 5.49187,-1.88415 8.60129,-1.88423 14.52056,-0.52676 19.58759,7.42371 19.76156,21.04953 l 0,30.09383 c -6e-5,6.49611 -0.43416,11.11696 -1.3023,13.86254 -4.80984,9.57962 -17.96212,11.09808 -27.18169,7.13315 -2.58446,-1.25616 -4.94678,-3.12243 -7.08697,-5.59885 l 0,16.36587 -24.47127,0 0,-81.61402 24.89528,0 z m 6.96582,20.78035 c -3e-5,-4.41442 -0.18175,-7.08823 -0.54515,-8.02143 -0.36347,-0.93308 -1.373,-1.39965 -3.02863,-1.39971 -1.61528,6e-5 -2.65512,0.53841 -3.11947,1.61505 -0.46442,1.07676 -0.69661,3.67879 -0.69658,7.80609 l 0,29.60931 c -3e-5,4.30683 0.24226,6.99858 0.72686,8.07527 0.48455,1.07671 1.53447,1.61506 3.14977,1.61505 1.57485,10e-6 2.55411,-0.49348 2.93777,-1.48047 0.38359,-0.98696 0.5754,-3.38262 0.57543,-7.18699 l 0,-30.63217 z"
       id="path2405"
       sodipodi:nodetypes="cccssssccsssssssccccsssscczsssssssccccccccscccssscccccccccsssssssccsssssscccsssccsssccccscccccccccccsssccssscc"
       inkscape:connector-curvature="0" />
    <path
       style="font-size:246.81651306px;font-style:normal;font-weight:normal;text-align:start;line-height:125%;text-anchor:start;fill:#ff0000;fill-opacity:1;stroke:none;font-family:Bitstream Vera Sans"
       d="m 603.41307,456.43541 0,-6.48537 2.8755,0 c 0.57805,10e-6 1.01749,0.0583 1.31832,0.17475 0.30082,0.1165 0.54118,0.32221 0.72108,0.61712 0.1799,0.29493 0.26986,0.62082 0.26986,0.97768 0,0.46008 -0.14894,0.84791 -0.44681,1.16347 -0.29788,0.31557 -0.75796,0.51612 -1.38024,0.60165 0.22708,0.10912 0.39961,0.21676 0.51759,0.32293 0.25068,0.23005 0.48809,0.5176 0.71224,0.86266 l 1.12808,1.76511 -1.07942,0 -0.85823,-1.34927 c -0.25069,-0.3893 -0.45713,-0.68718 -0.61934,-0.89362 -0.16221,-0.20645 -0.30746,-0.35095 -0.43575,-0.43354 -0.12829,-0.0826 -0.2588,-0.14008 -0.39151,-0.17253 -0.0973,-0.0206 -0.25658,-0.031 -0.47777,-0.031 l -0.99537,0 0,2.87993 -0.85823,0 z m 0.85823,-3.62313 1.84475,0 c 0.39224,0 0.69896,-0.0405 0.92016,-0.12166 0.22119,-0.0811 0.38929,-0.21087 0.50432,-0.38929 0.11501,-0.17843 0.17252,-0.37234 0.17253,-0.58174 -1e-5,-0.30672 -0.11134,-0.55888 -0.334,-0.75649 -0.22267,-0.19758 -0.57437,-0.29639 -1.05509,-0.2964 l -2.05267,0 0,2.14558 z"
       id="text2407"
       inkscape:connector-curvature="0" />
    <path
       sodipodi:type="arc"
       style="fill:none;stroke:#ff0000;stroke-width:1;stroke-miterlimit:4;stroke-opacity:1;stroke-dasharray:none;marker:none;visibility:visible;display:inline;overflow:visible;enable-background:accumulate"
       id="path2411"
       sodipodi:cx="609.67633"
       sodipodi:cy="451.88562"
       sodipodi:rx="5.9415174"
       sodipodi:ry="5.9415174"
       d="m 615.61785,451.88562 c 0,3.28141 -2.66011,5.94152 -5.94152,5.94152 -3.28141,0 -5.94152,-2.66011 -5.94152,-5.94152 0,-3.28141 2.66011,-5.94152 5.94152,-5.94152 3.28141,0 5.94152,2.66011 5.94152,5.94152 z"
       transform="matrix(0.8809834,0,0,0.8809834,68.753255,55.123515)" />
  </g>
</svg>
